<?xml version="1.0" encoding="UTF-8"?> <svg xmlns="http://www.w3.org/2000/svg" version="1.1" id="Layer_1" x="0" y="0" viewBox="0 0 5859 1200" style="enable-background:new 0 0 5859 1200" xml:space="preserve"><style>.st0{fill:#4088c2}</style><path class="st0" d="M748 61H476L87 1138h272zM1095 61H823L434 1138h272zM1788 61h-618l-89 244-188 521h272l188-521h75l-212 588H869l-88 245h619l88-245zM2362 61h198v658h-128V274a4204 4204 0 0 1 0-107l-124 552h-134l-123-552a4188 4188 0 0 0 0 107v445h-128V61h200l120 517 119-517zM2869 423c24-3 41-7 51-11 18-8 27-20 27-36 0-20-7-34-21-41-14-8-34-12-62-12-30 0-52 8-64 22-9 12-15 26-18 45h-123c3-42 15-77 36-105 34-42 92-64 174-64 53 0 101 11 142 32 42 21 62 61 62 119v223l1 56c1 17 4 28 8 34s10 11 18 15v19h-138c-4-10-6-19-8-28l-3-29c-18 19-38 35-61 48-28 16-59 24-94 24-44 0-80-13-109-38s-44-60-44-107c0-59 24-103 70-129 25-15 63-25 112-32l44-5zm78 59a145 145 0 0 1-59 21l-29 6c-27 4-47 10-58 17a58 58 0 0 0-30 54c0 22 6 38 18 47 12 10 27 15 45 15 27 0 53-8 76-24 24-17 36-46 37-88v-48zM3484 233h136l-175 486h-134l-175-486h143l101 358zM4009 243c34 15 62 39 84 71 20 29 33 63 39 101 3 22 4 54 4 96h-354c2 49 19 83 51 103 19 12 42 18 70 18 29 0 52-7 70-22 10-8 19-19 27-33h129c-3 28-19 58-47 87-43 48-104 71-183 71-64 0-122-20-171-60-49-39-74-104-74-194 0-84 22-149 67-194s103-67 174-67c42 0 80 7 114 23m-190 109c-18 19-29 44-34 76h219c-2-34-14-60-34-77-20-18-45-27-75-27-33 1-58 10-76 28M4470 221l11 1v130a343 343 0 0 0-37-2c-51 0-85 17-103 50-9 19-14 47-14 86v233h-128V233h121v84c20-32 37-54 51-66a139 139 0 0 1 99-30M4686 175h-129V57h129v118zm-129 58h129v486h-129V233zM5100 407c-3-18-9-34-18-49-15-20-37-29-67-29-43 0-72 21-88 63-8 23-13 53-13 90 0 36 5 64 13 86 15 40 44 61 86 61 29 0 51-8 63-24 13-17 20-37 23-63h130c-3 39-17 75-42 110-40 55-99 83-177 83-79 0-136-23-173-69-37-47-55-107-55-181 0-83 20-148 61-194s97-70 168-70c61 0 111 14 150 41s62 76 69 145h-130zM5316 64h125v354l160-183h158l-174 181 181 303h-155l-118-208-52 55v153h-125zM2047 931c15 4 27 13 36 26 7 11 12 22 15 34a161 161 0 0 1-13 106 76 76 0 0 1-71 40h-91V926h91c13 0 24 2 33 5m-81 32v137h41c21 0 35-10 43-31 5-11 7-24 7-40 0-21-3-38-10-49-7-12-20-18-40-18h-41zM2316 926h44v211h-44zM2646 926h49l75 211h-48l-14-44h-77l-15 44h-46l76-211zm-3 131h54l-27-83-27 83zM3123 992c-3-15-11-25-24-30-8-4-16-5-25-5-17 0-30 6-41 19s-17 32-17 58 6 44 18 55 25 16 40 16 27-4 36-13 16-20 18-33h-49v-35h88v113h-29l-4-27c-9 10-17 17-23 21-12 8-26 11-43 11-28 0-51-10-69-29s-28-46-28-80 10-61 28-82c19-20 44-31 75-31 27 0 48 7 65 21 16 13 25 30 28 51h-44zM3393 926h46l84 147V926h41v211h-44l-86-150v150h-41zM3952 1118c-16 16-39 25-69 25s-53-9-69-25c-21-20-32-49-32-87 0-39 11-68 32-87 16-16 39-25 69-25s53 9 69 25c21 19 32 48 32 87 0 38-11 67-32 87m-27-32c10-13 15-31 15-55s-5-42-15-55a50 50 0 0 0-42-19c-17 0-31 6-42 19a85 85 0 0 0-15 55c0 24 5 42 15 55 11 13 24 19 42 19s31-6 42-19M4234 1072c1 9 4 17 8 21 7 9 20 13 37 13 11 0 20-1 26-3 13-5 19-13 19-25 0-7-3-12-9-16s-16-7-29-10l-23-5c-23-5-38-10-47-16-14-10-21-25-21-46 0-18 7-34 21-47 14-12 34-18 61-18 23 0 42 6 58 17 16 12 24 29 25 52h-42c-1-13-7-22-17-27-7-4-16-6-27-6s-21 3-28 7c-6 5-10 11-10 19s3 14 10 17c5 3 14 6 28 9l37 9c17 4 29 9 37 15 12 10 19 24 19 43s-8 35-23 48a94 94 0 0 1-63 19c-28 0-49-6-65-19a62 62 0 0 1-24-51h42zM4735 926v37h-63v174h-44V963h-63v-37zM4942 926h44v211h-44zM5232 948c17-18 38-26 64-26 36 0 61 11 77 35 9 13 14 26 15 39h-44c-3-10-7-18-11-23-8-9-20-14-35-14-16 0-28 7-37 20s-14 31-14 55c0 23 5 41 15 53 9 12 21 18 36 18s27-6 35-16c4-5 8-13 10-24h44c-4 23-13 42-29 56a84 84 0 0 1-59 22c-30 0-54-10-71-30-17-19-26-46-26-80 0-37 10-65 30-85M5639 1072c2 9 4 17 8 21 8 9 20 13 38 13 10 0 19-1 26-3 12-5 18-13 18-25 0-7-3-12-9-16s-16-7-29-10l-23-5c-22-5-38-10-46-16-14-10-21-25-21-46 0-18 7-34 20-47 14-12 35-18 62-18 22 0 41 6 57 17 16 12 24 29 25 52h-42c-1-13-7-22-17-27-7-4-16-6-26-6-12 0-21 3-28 7-7 5-11 11-11 19s4 14 11 17c4 3 13 6 28 9l37 9c16 4 28 9 36 15 13 10 19 24 19 43s-7 35-22 48a94 94 0 0 1-63 19c-28 0-50-6-66-19a62 62 0 0 1-24-51h42z"></path></svg> 